<svg width="513" height="513" viewBox="0 0 513 513" fill="none" xmlns="http://www.w3.org/2000/svg">
<path d="M379.232 299.165C405.741 299.165 427.232 320.655 427.232 347.165V366.473C427.232 389.805 417.046 411.974 399.343 427.173C365.947 455.844 318.153 469.856 256.5 469.856C194.857 469.856 147.096 455.849 113.755 427.183C96.0776 411.986 85.9089 389.833 85.9089 366.521V347.165C85.9089 320.655 107.399 299.165 133.909 299.165H379.232ZM254.336 43.3233L256.507 43.1772C264.607 43.1772 271.302 49.1965 272.361 57.0061L272.507 59.1772L272.49 75.1559L347.167 75.1667C373.676 75.1667 395.167 96.657 395.167 123.167V219.265C395.167 245.774 373.676 267.265 347.167 267.265H165.833C139.324 267.265 117.833 245.774 117.833 219.265V123.167C117.833 96.657 139.324 75.1667 165.833 75.1667L240.49 75.1559L240.507 59.1772C240.507 51.0771 246.526 44.3828 254.336 43.3233ZM208.485 139.167C193.766 139.167 181.833 151.099 181.833 165.818C181.833 180.537 193.766 192.47 208.485 192.47C223.204 192.47 235.136 180.537 235.136 165.818C235.136 151.099 223.204 139.167 208.485 139.167ZM304.33 139.167C289.611 139.167 277.678 151.099 277.678 165.818C277.678 180.537 289.611 192.47 304.33 192.47C319.049 192.47 330.981 180.537 330.981 165.818C330.981 151.099 319.049 139.167 304.33 139.167Z" fill="#ADFB64"/>
</svg>
